<svg width="1154" height="1131" viewBox="0 0 1154 1131" fill="none" xmlns="http://www.w3.org/2000/svg">
<path d="M1124 565.5C1124 860.682 879.672 1101 577 1101C274.328 1101 30 860.682 30 565.5C30 270.318 274.328 30 577 30C879.672 30 1124 270.318 1124 565.5Z" stroke="white" stroke-width="60"/>
<path fill-rule="evenodd" clip-rule="evenodd" d="M890.044 191.325C886.726 189.602 876.101 194.846 857.031 204.258C815.497 224.756 733.906 265.024 600.506 296.147C505.917 318.214 243.656 393.483 248.009 767.37L146 827.375L177.778 882.997C205.924 864.839 234.446 849.352 264.073 833.267C338.182 793.029 419.198 749.042 518.5 650.097C518.5 650.097 490 743.355 296.013 863.364C458.02 947.361 686.019 947.361 860.042 743.355C1034.04 539.359 890.044 191.325 890.044 191.325ZM399 604.061C399 584.731 414.67 569.061 434 569.061H542.437V458C542.437 438.67 558.107 423 577.437 423C596.767 423 612.437 438.67 612.437 458V569.061H720C739.33 569.061 755 584.731 755 604.061C755 623.391 739.33 639.061 720 639.061H612.437V744C612.437 763.33 596.767 779 577.437 779C558.107 779 542.437 763.33 542.437 744V639.061H434C414.67 639.061 399 623.391 399 604.061Z" fill="white"/>
</svg>